<svg version="1.2" baseProfile="tiny-ps" xmlns="http://www.w3.org/2000/svg" viewBox="0 0 74 85" width="74" height="85">
	<title>Web 1920 – 1</title>
	<defs>
		<clipPath clipPathUnits="userSpaceOnUse" id="cp1">
			<path d="m-393-1139h1920v2776h-1920z" />
		</clipPath>
	</defs>
	<style>
		tspan { white-space:pre }
		.s0 { fill: #32325f } 
	</style>
	<g id="Web 1920 – 1" clip-path="url(#cp1)">
		<g id="001-manager">
			<path id="Path 82" fill-rule="evenodd" class="s0" d="m73.23 83.34c0 0.92-0.74 1.66-1.66 1.66h-69.91c-0.92 0-1.66-0.74-1.66-1.66v-15.98c0-9.15 10.42-16.29 19.31-16.63l4.58-4.12c-5.47-4.03-8.78-10.51-8.78-17.4v-10.96c0-10.1 8.12-18.26 18.2-18.26h6.64c10.1 0 18.32 8.19 18.32 18.26v10.96c0 6.9-3.36 13.39-8.9 17.43l4.55 4.08c8.91 0.34 19.31 7.5 19.31 16.63v15.98zm-42.08-1.66h10.88l-1.74-7.64h-7.35l-1.79 7.64zm10.63-14.87l-5.17-2.58l-5.06 2.53l1.27 3.97h7.59l1.36-3.91zm0.59-16.79c-1.86 0.51-3.8 0.78-5.74 0.78c-1.97 0-3.91-0.27-5.79-0.79l5.77 9.23l5.76-9.22zm3.42 15.08l5.47-12.29l-4.3-3.86l-7.97 12.75l6.8 3.4zm-27.36-46.84v1.23l2.96-4.34c0.28-0.41 0.73-0.67 1.23-0.72c0.49-0.04 0.98 0.14 1.33 0.49c3.38 3.45 7.29 4.99 12.67 4.99c5.39 0 9.29-1.54 12.67-4.99c0.35-0.35 0.83-0.54 1.33-0.49c0.49 0.04 0.94 0.3 1.22 0.71l3.12 4.49v-1.37c0-8.24-6.73-14.94-15-14.94h-6.64c-8.21 0-14.88 6.7-14.88 14.94zm18.2 29.22c10.19 0 18.32-8.32 18.32-18.26v-3.76l-4.75-6.84c-3.69 3.15-8.06 4.63-13.59 4.63c-5.52 0-9.88-1.48-13.58-4.62l-4.61 6.76v3.84c0 9.97 8.04 18.26 18.2 18.26zm-14.66 5.33l5.47 12.29l6.8-3.4l-7.97-12.75l-4.3 3.86zm-18.65 28.87h24.41l2.16-9.23l-1.35-4.19l-1.18 0.59c-0.41 0.2-0.88 0.23-1.3 0.08c-0.43-0.15-0.77-0.47-0.96-0.89l-6.21-13.96c-7.27 0.54-15.58 6.44-15.58 13.28v14.32zm66.59-14.32c0-6.84-8.31-12.74-15.58-13.28l-6.21 13.96c-0.18 0.41-0.53 0.73-0.96 0.89c-0.42 0.15-0.89 0.13-1.3-0.08l-1.08-0.54l-1.44 4.17l2.1 9.2h24.48v-14.32z" />
		</g>
	</g>
</svg>