<svg version="1.2" baseProfile="tiny-ps" xmlns="http://www.w3.org/2000/svg" viewBox="0 0 86 85" width="86" height="85">
	<title>Web 1920 – 1</title>
	<defs>
		<clipPath clipPathUnits="userSpaceOnUse" id="cp1">
			<path d="m-684-1139h1920v2776h-1920z" />
		</clipPath>
	</defs>
	<style>
		tspan { white-space:pre }
		.s0 { fill: #32325f } 
	</style>
	<g id="Web 1920 – 1" clip-path="url(#cp1)">
		<g id="002-hand">
			<path id="Path 86" fill-rule="evenodd" class="s0" d="m49.5 0c10.07 0 18.26 8.19 18.26 18.26c0 10.07-8.19 18.26-18.26 18.26c-10.07 0-18.26-8.19-18.26-18.26c0-10.07 8.19-18.26 18.26-18.26zm0 3.32c-8.24 0-14.94 6.7-14.94 14.94c0 8.24 6.7 14.94 14.94 14.94c8.24 0 14.94-6.7 14.94-14.94c0-8.24-6.7-14.94-14.94-14.94z" />
			<path id="Path 87" fill-rule="evenodd" class="s0" d="m0.52 65.73c-0.64-0.65-0.64-1.69 0-2.34l7.9-7.92c1.2-1.2 2.86-1.67 4.44-1.38c3.75-6.92 10.72-10.61 18.72-10.61c2.88 0 5.68 0.56 8.31 1.66h18.51c2.04 0 3.92 0.95 5.16 2.47l9.79-10.07c2.37-2.75 6.53-3.08 9.31-0.74c2.8 2.36 3.15 6.56 0.79 9.36c-15.93 19.04-14.94 17.87-15.05 17.98c-2.8 2.73-6.5 4.23-10.42 4.23h-22.06c-1.3 0-2.52 0.5-3.46 1.4l-1.73 1.67c0.6 1.76 0.19 3.78-1.18 5.15l-8.05 7.93c-0.65 0.64-1.7 0.63-2.34-0.01l-18.64-18.78zm15.22-9.98l13 13l1.41-1.36c1.55-1.5 3.6-2.33 5.76-2.33h22.06c3.02 0 5.87-1.15 8.04-3.24l14.89-17.8c1.19-1.4 1.01-3.5-0.39-4.68c-1.4-1.18-3.5-1-4.68 0.4c-0.06 0.07-1.39 1.44-10.87 11.17c0.04 0.29 0.06 0.58 0.06 0.87c0 3.66-2.98 6.64-6.64 6.64h-13.54c-0.92 0-1.66-0.74-1.66-1.66c0-0.92 0.74-1.66 1.66-1.66h13.54c1.83 0 3.32-1.49 3.32-3.32c0-1.85-1.52-3.32-3.32-3.32h-18.85c-0.23 0-0.46-0.05-0.67-0.14c-2.31-1.01-4.76-1.52-7.31-1.52c-7.09 0-12.79 3.24-15.83 8.94zm-11.7 8.82l16.31 16.43l6.86-6.76c0.62-0.62 0.65-1.68-0.01-2.34c-14.91-14.89-14.09-14.14-14.38-14.32c-0.67-0.41-1.51-0.31-2.06 0.23l-6.73 6.75z" />
		</g>
	</g>
</svg>