<svg version="1.2" baseProfile="tiny-ps" xmlns="http://www.w3.org/2000/svg" viewBox="0 0 86 85" width="86" height="85">
	<title>Web 1920 – 1</title>
	<defs>
		<clipPath clipPathUnits="userSpaceOnUse" id="cp1">
			<path d="m-977-1139h1920v2776h-1920z" />
		</clipPath>
	</defs>
	<style>
		tspan { white-space:pre }
		.s0 { fill: #32325f } 
	</style>
	<g id="Web 1920 – 1" clip-path="url(#cp1)">
		<g id="003-wishlist">
			<path id="Path 89" class="s0" d="m37.22 53.46c0 0.92-0.74 1.66-1.66 1.66c-0.92 0-1.66-0.74-1.66-1.66c0-0.92 0.74-1.66 1.66-1.66c0.92 0 1.66 0.74 1.66 1.66z" />
			<path id="Path 90" class="s0" d="m37.22 63.42c0 0.92-0.74 1.66-1.66 1.66c-0.92 0-1.66-0.74-1.66-1.66c0-0.92 0.74-1.66 1.66-1.66c0.92 0 1.66 0.74 1.66 1.66z" />
			<path id="Path 91" class="s0" d="m65.78 53.46c0 0.92-0.74 1.66-1.66 1.66h-21.91c-0.92 0-1.66-0.74-1.66-1.66c0-0.92 0.74-1.66 1.66-1.66h21.91c0.92 0 1.66 0.74 1.66 1.66z" />
			<path id="Path 92" class="s0" d="m65.78 63.42c0 0.92-0.74 1.66-1.66 1.66h-21.91c-0.92 0-1.66-0.74-1.66-1.66c0-0.92 0.74-1.66 1.66-1.66h21.91c0.92 0 1.66 0.74 1.66 1.66z" />
			<path id="Path 93" fill-rule="evenodd" class="s0" d="m5.02 79.69c-2.78-3.71-4.32-8.31-4.32-12.95v-53.46c0-1.62 0.6-3.18 1.66-4.39v-3.91c0-2.75 2.23-4.98 4.98-4.98c2.75 0 4.98 2.23 4.98 4.98v3.91c1.07 1.21 1.66 2.76 1.66 4.39v3.32h1.66c2.75 0 4.98 2.23 4.98 4.98v15.27c0 0.92-0.74 1.66-1.66 1.66c-0.92 0-1.66-0.74-1.66-1.66v-15.27c0-0.92-0.74-1.66-1.66-1.66h-1.66v46.82c0 4.64-1.53 9.24-4.32 12.95l-0.66 0.89v2.77c0 0.92-0.74 1.66-1.66 1.66c-0.92 0-1.66-0.74-1.66-1.66v-2.77l-0.66-0.89zm5.64-59.77h-6.64v45.16h6.64v-45.16zm0-3.32v-3.32c0-1.86-1.52-3.32-3.32-3.32c-1.84 0-3.32 1.5-3.32 3.32v3.32h6.64zm-4.98-11.62v1.87c0.54-0.14 1.1-0.21 1.66-0.21c0.56 0 1.12 0.07 1.66 0.21v-1.87c0-0.92-0.74-1.66-1.66-1.66c-0.92 0-1.66 0.74-1.66 1.66zm-1.58 63.42c0.29 3.16 1.42 6.24 3.24 8.84c1.83-2.6 2.95-5.68 3.24-8.84h-6.49z" />
			<path id="Path 94" fill-rule="evenodd" class="s0" d="m84.04 28.55h-8.3v47.79c0 4.52-3.44 8.66-8.3 8.66h-38.52c-6.41 0-11.62-5.21-11.62-11.62c0-0.92 0.74-1.66 1.66-1.66h4.98v-51.46c0-4.58 3.72-8.3 8.3-8.3c0 0 46.44 0 46.82 0c3.66 0 6.64 2.98 6.64 6.64v8.3c0 0.92-0.74 1.66-1.66 1.66zm-23.24 53.12c-1.04-1.39-1.66-3.11-1.66-4.98v-1.66h-38.35c0.77 3.78 4.13 6.64 8.13 6.64h31.88zm12.5-66.42h-41.06c-2.75 0-4.98 2.25-4.98 5v51.46h33.54c0.92 0 1.66 0.74 1.66 1.66v3.32c0 2.75 2.23 4.98 4.98 4.98c2.99 0 4.98-2.59 4.98-5.34v-57.75c0-1.2 0.32-2.35 0.89-3.34zm9.07 3.34c0-1.83-1.49-3.32-3.32-3.32c-1.81 0-3.32 1.46-3.32 3.32v6.64h6.64v-6.64z" />
			<path id="Path 95" fill-rule="evenodd" class="s0" d="m36.65 29.81c0-4.43 3.25-7.9 7.41-7.9c2.79 0 4.62 1.5 5.75 3.02c1.13-1.52 2.95-3.02 5.75-3.02c4.15 0 7.41 3.47 7.41 7.9c0 4.73-3.82 7.95-9.1 12.41c-0.95 0.8-1.93 1.62-2.96 2.52c-0.31 0.27-0.7 0.41-1.09 0.41c-0.39 0-0.77-0.13-1.09-0.41c-1.04-0.9-2.02-1.73-2.96-2.53c-5.28-4.46-9.1-7.68-9.1-12.41zm3.32 0c0 3.19 2.98 5.71 7.92 9.88c0.62 0.52 1.25 1.06 1.91 1.62c0.66-0.56 1.29-1.1 1.91-1.62c4.94-4.17 7.92-6.69 7.92-9.88c0-2.61-1.76-4.58-4.09-4.58c-3.03 0-4.1 3.62-4.15 3.77c-0.2 0.71-0.86 1.21-1.6 1.21h-0.01c-0.74 0-1.39-0.49-1.59-1.21c-0.04-0.15-1.12-3.77-4.15-3.77c-2.33 0-4.09 1.97-4.09 4.58z" />
		</g>
	</g>
</svg>