<svg version="1.2" baseProfile="tiny-ps" xmlns="http://www.w3.org/2000/svg" viewBox="0 0 86 85" width="86" height="85">
	<title>Web 1920 – 1</title>
	<defs>
		<clipPath clipPathUnits="userSpaceOnUse" id="cp1">
			<path d="m-1271-1139h1920v2776h-1920z" />
		</clipPath>
	</defs>
	<style>
		tspan { white-space:pre }
		.s0 { fill: #000000 } 
		.s1 { fill: #32325f } 
	</style>
	<g id="Web 1920 – 1" clip-path="url(#cp1)">
		<g id="004-box">
			<path id="Path 96" class="s0" d="m44.52 60.1c0 0.92-0.74 1.66-1.66 1.66c-0.92 0-1.66-0.74-1.66-1.66c0-0.92 0.74-1.66 1.66-1.66c0.92 0 1.66 0.74 1.66 1.66z" />
			<path id="Path 97" fill-rule="evenodd" class="s1" d="m84.4 35.04l-11.04 5.14l11.04 5.14c0.58 0.27 0.96 0.85 0.96 1.49c0 0.64-0.36 1.23-0.94 1.51l-13.34 6.43v15.32c0 0.63-0.36 1.2-0.92 1.49l-26.56 13.28c-0.01 0.01-0.03 0.01-0.04 0.02c-0.02 0.01-0.05 0.02-0.08 0.03c-0.04 0.02-0.09 0.03-0.13 0.05c-0.02 0.01-0.05 0.01-0.07 0.02c-0.05 0.01-0.1 0.02-0.15 0.03c-0.02 0-0.04 0.01-0.05 0.01c-0.07 0.01-0.14 0.01-0.21 0.01c-0.01 0-0.01 0-0.02 0c-0.06 0-0.13-0.01-0.19-0.01c-0.02 0-0.05-0.01-0.07-0.01c-0.05-0.01-0.09-0.02-0.14-0.03c-0.03-0.01-0.05-0.01-0.08-0.02c-0.04-0.01-0.08-0.03-0.13-0.04c-0.03-0.01-0.05-0.02-0.08-0.03c-0.02-0.01-0.03-0.01-0.05-0.02l-26.56-13.28c-0.56-0.28-0.92-0.86-0.92-1.48v-15.32l-13.34-6.43c-0.58-0.28-0.94-0.87-0.94-1.51c0-0.64 0.38-1.22 0.96-1.49l11.04-5.14l-11.04-5.14c-0.58-0.27-0.96-0.85-0.96-1.49c0-0.64 0.36-1.23 0.94-1.51l27.56-13.28c0.46-0.22 1-0.22 1.46 0.01l5.9 2.95v-20.06c0-0.92 0.74-1.66 1.66-1.66h9.96c0.92 0 1.66 0.74 1.66 1.66v20.06l5.9-2.95c0.46-0.23 1-0.23 1.46-0.01l27.56 13.28c0.58 0.28 0.94 0.87 0.94 1.51c0 0.64-0.38 1.22-0.96 1.49zm-44.86-8.15c0 0.92-0.74 1.66-1.66 1.66h-1.66l0.72 0.97l5.92 7.89l6.64-8.85h-1.66c-0.92 0-1.66-0.74-1.66-1.66v-23.57h-6.64v23.57zm26.17 13.28l-15.11-7.55l-6.41 8.55c-0.31 0.42-0.81 0.66-1.33 0.66c-0.52 0-1.01-0.25-1.33-0.66l-6.41-8.55l-15.11 7.55l22.85 11.43l22.85-11.43zm-59.81-6.67l10.37 4.82l16.82-8.41l-1.52-2.03c-0.38-0.5-0.44-1.18-0.16-1.74c0.28-0.56 0.86-0.92 1.48-0.92h2.93l-6.26-3.13l-23.67 11.41zm0 13.33l23.67 11.41l9.58-4.79l-22.88-11.44l-10.37 4.82zm61.86 9.5l-10.9 5.25c-0.46 0.22-1 0.22-1.46-0.01l-12.54-6.27l-12.54 6.27c-0.46 0.23-1 0.23-1.46 0.01l-10.9-5.25v12.69l23.24 11.62v-13.91c0-0.92 0.74-1.66 1.66-1.66c0.92 0 1.66 0.74 1.66 1.66v13.91l23.24-11.62v-12.69zm12.06-9.5l-10.37-4.82l-22.88 11.44l9.58 4.79l23.67-11.41zm0-13.33l-23.67-11.41l-6.26 3.13h2.93c0.63 0 1.2 0.35 1.48 0.92c0.28 0.56 0.22 1.24-0.16 1.74l-1.52 2.03l16.82 8.41l10.37-4.82z" />
		</g>
	</g>
</svg>