<svg version="1.2" baseProfile="tiny-ps" xmlns="http://www.w3.org/2000/svg" viewBox="0 0 19 19" width="19" height="19">
	<title>Web 1920 – 1</title>
	<defs>
		<clipPath clipPathUnits="userSpaceOnUse" id="cp1">
			<path d="M-1465 -80L455 -80L455 2696L-1465 2696Z" />
		</clipPath>
	</defs>
	<style>
		tspan { white-space:pre }
		.shp0 { fill: #95989a } 
	</style>
	<g id="Web 1920 – 1" clip-path="url(#cp1)">
		<path id="instagram" fill-rule="evenodd" class="shp0" d="M14.55 19L4.45 19C2 19 0 17 0 14.55L0 4.45C0 2 2 0 4.45 0L14.55 0C17 0 19 2 19 4.45L19 14.55C19 17 17 19 14.55 19ZM4.45 1.48C2.82 1.48 1.48 2.82 1.48 4.45L1.48 14.55C1.48 16.18 2.82 17.52 4.45 17.52L14.55 17.52C16.18 17.52 17.52 16.18 17.52 14.55L17.52 4.45C17.52 2.82 16.18 1.48 14.55 1.48L4.45 1.48ZM15.66 4.27C15.66 4.78 15.24 5.2 14.73 5.2C14.22 5.2 13.8 4.78 13.8 4.27C13.8 3.76 14.22 3.34 14.73 3.34C15.24 3.34 15.66 3.76 15.66 4.27ZM9.5 14.32C6.84 14.32 4.68 12.16 4.68 9.5C4.94 3.1 14.06 3.1 14.32 9.5C14.32 12.16 12.16 14.32 9.5 14.32ZM9.5 6.16C7.66 6.16 6.16 7.66 6.16 9.5C6.34 13.93 12.66 13.93 12.84 9.5C12.84 7.66 11.34 6.16 9.5 6.16Z" />
	</g>
</svg>